<?xml version="1.0" encoding="UTF-8" standalone="no"?>
<!-- Created with Inkscape (http://www.inkscape.org/) -->

<svg
   xmlns:dc="http://purl.org/dc/elements/1.1/"
   xmlns:cc="http://creativecommons.org/ns#"
   xmlns:rdf="http://www.w3.org/1999/02/22-rdf-syntax-ns#"
   xmlns:svg="http://www.w3.org/2000/svg"
   xmlns="http://www.w3.org/2000/svg"
   xmlns:sodipodi="http://sodipodi.sourceforge.net/DTD/sodipodi-0.dtd"
   xmlns:inkscape="http://www.inkscape.org/namespaces/inkscape"
   width="128"
   height="128"
   viewBox="0 0 33.866666 33.866668"
   version="1.1"
   id="svg8"
   inkscape:version="0.92.1 r15371"
   sodipodi:docname="icon.svg">
  <defs
     id="defs2" />
  <sodipodi:namedview
     id="base"
     pagecolor="#ffffff"
     bordercolor="#666666"
     borderopacity="1.0"
     inkscape:pageopacity="0.0"
     inkscape:pageshadow="2"
     inkscape:zoom="1.979899"
     inkscape:cx="9.7509567"
     inkscape:cy="101.947"
     inkscape:document-units="mm"
     inkscape:current-layer="layer1"
     showgrid="false"
     units="px"
     inkscape:window-width="3200"
     inkscape:window-height="1697"
     inkscape:window-x="0"
     inkscape:window-y="55"
     inkscape:window-maximized="1" />
  <metadata
     id="metadata5">
    <rdf:RDF>
      <cc:Work
         rdf:about="">
        <dc:format>image/svg+xml</dc:format>
        <dc:type
           rdf:resource="http://purl.org/dc/dcmitype/StillImage" />
        <dc:title></dc:title>
      </cc:Work>
    </rdf:RDF>
  </metadata>
  <g
     inkscape:label="Layer 1"
     inkscape:groupmode="layer"
     id="layer1"
     transform="translate(0,-263.13332)">
    <text
       xml:space="preserve"
       style="font-style:normal;font-weight:normal;font-size:10.58333302px;line-height:125%;font-family:sans-serif;letter-spacing:0px;word-spacing:0px;fill:#000000;fill-opacity:1;stroke:none;stroke-width:0.26458332px;stroke-linecap:butt;stroke-linejoin:miter;stroke-opacity:1"
       x="4.5735121"
       y="291.33035"
       id="text12"><tspan
         sodipodi:role="line"
         id="tspan10"
         x="4.5735121"
         y="291.33035"
         style="font-style:normal;font-variant:normal;font-weight:normal;font-stretch:normal;font-size:50.79999924px;font-family:'Ubuntu Mono';-inkscape-font-specification:'Ubuntu Mono, Normal';font-variant-ligatures:normal;font-variant-caps:normal;font-variant-numeric:normal;font-feature-settings:normal;text-align:start;writing-mode:lr-tb;text-anchor:start;stroke-width:0.26458332px">a</tspan></text>
    <path
       inkscape:connector-curvature="0"
       id="path81"
       d="m 15.81085,287.54523 c -0.002,-0.003 0.0055,-0.0399 0.01653,-0.0816 0.05372,-0.20234 0.149045,-0.56524 0.197687,-0.75261 0.02979,-0.11475 0.09166,-0.35062 0.137482,-0.52415 0.04583,-0.17353 0.09625,-0.36589 0.112045,-0.42747 0.0158,-0.0616 0.04023,-0.15546 0.05428,-0.20864 0.01406,-0.0532 0.04901,-0.186 0.07767,-0.29515 0.02866,-0.10916 0.06598,-0.25114 0.08293,-0.31551 0.0553,-0.21007 0.109281,-0.41839 0.166158,-0.6412 0.03072,-0.12035 0.06505,-0.24859 0.07629,-0.28498 0.01124,-0.0364 0.02047,-0.0717 0.02051,-0.0784 4.1e-5,-0.007 -0.03298,-0.0336 -0.07337,-0.0597 -0.265461,-0.17173 -0.4514,-0.3759 -0.592543,-0.65065 -0.213522,-0.41564 -0.21777,-0.93993 -0.01122,-1.38417 0.209273,-0.45009 0.632191,-0.77838 1.133531,-0.8799 0.514777,-0.10425 1.073648,0.0722 1.44155,0.45518 0.352174,0.36659 0.502488,0.83536 0.431535,1.34581 -0.03477,0.25015 -0.162633,0.54476 -0.324972,0.74878 -0.08106,0.10186 -0.257222,0.26238 -0.369729,0.33688 -0.05663,0.0375 -0.105665,0.0721 -0.108969,0.077 -0.0066,0.01 0.0293,0.16324 0.08761,0.37418 0.02089,0.0756 0.05521,0.2061 0.07628,0.29007 0.02106,0.084 0.04824,0.1893 0.06038,0.23408 0.01215,0.0448 0.03987,0.15012 0.0616,0.23409 0.02173,0.084 0.07444,0.28549 0.117126,0.44782 0.04269,0.16233 0.0913,0.34782 0.108028,0.4122 0.03912,0.15055 0.07814,0.29924 0.148234,0.56486 0.03102,0.11755 0.08075,0.30762 0.110511,0.42238 0.02976,0.11475 0.07936,0.30471 0.110209,0.42212 0.03085,0.11742 0.05369,0.21589 0.05076,0.21882 -0.0073,0.007 -3.39363,0.007 -3.398136,-10e-5 z"
       style="fill:#000000;stroke-width:0.01017772" />
  </g>
</svg>
