<?xml version="1.0" encoding="UTF-8" standalone="no"?>
<!-- Created with Inkscape (http://www.inkscape.org/) -->

<svg
   xmlns:dc="http://purl.org/dc/elements/1.1/"
   xmlns:cc="http://creativecommons.org/ns#"
   xmlns:rdf="http://www.w3.org/1999/02/22-rdf-syntax-ns#"
   xmlns:svg="http://www.w3.org/2000/svg"
   xmlns="http://www.w3.org/2000/svg"
   xmlns:sodipodi="http://sodipodi.sourceforge.net/DTD/sodipodi-0.dtd"
   xmlns:inkscape="http://www.inkscape.org/namespaces/inkscape"
   width="210mm"
   height="297mm"
   viewBox="0 0 210 297"
   version="1.1"
   id="svg8"
   inkscape:version="0.92.1 r15371"
   sodipodi:docname="logo.svg">
  <defs
     id="defs2" />
  <sodipodi:namedview
     id="base"
     pagecolor="#ffffff"
     bordercolor="#666666"
     borderopacity="1.0"
     inkscape:pageopacity="0.0"
     inkscape:pageshadow="2"
     inkscape:zoom="0.35"
     inkscape:cx="-417.14286"
     inkscape:cy="554.28571"
     inkscape:document-units="mm"
     inkscape:current-layer="layer1"
     showgrid="false"
     inkscape:window-width="3200"
     inkscape:window-height="1697"
     inkscape:window-x="0"
     inkscape:window-y="55"
     inkscape:window-maximized="1" />
  <metadata
     id="metadata5">
    <rdf:RDF>
      <cc:Work
         rdf:about="">
        <dc:format>image/svg+xml</dc:format>
        <dc:type
           rdf:resource="http://purl.org/dc/dcmitype/StillImage" />
        <dc:title></dc:title>
      </cc:Work>
    </rdf:RDF>
  </metadata>
  <g
     inkscape:label="Layer 1"
     inkscape:groupmode="layer"
     id="layer1">
    <g
       id="g119"
       transform="matrix(0.68990954,0,0,0.68990954,-63.153154,-203.38467)">
      <text
         id="text12"
         y="308.92697"
         x="-710.1853"
         style="font-style:normal;font-weight:normal;font-size:1177.55065918px;line-height:125%;font-family:sans-serif;letter-spacing:0px;word-spacing:0px;fill:#000000;fill-opacity:1;stroke:none;stroke-width:29.43876648px;stroke-linecap:butt;stroke-linejoin:miter;stroke-opacity:1"
         xml:space="preserve"><tspan
           style="font-style:normal;font-variant:normal;font-weight:normal;font-stretch:normal;font-size:177.01107788px;font-family:'Baloo Bhaina';-inkscape-font-specification:'Baloo Bhaina, Normal';font-variant-ligatures:normal;font-variant-caps:normal;font-variant-numeric:normal;font-feature-settings:normal;text-align:start;writing-mode:lr-tb;text-anchor:start;stroke-width:29.43876648px"
           y="308.92697"
           x="-710.1853"
           id="tspan10"
           sodipodi:role="line">nidus</tspan></text>
      <rect
         ry="11.339286"
         y="102.28152"
         x="-443.74405"
         height="105.96967"
         width="171.46252"
         id="rect14"
         style="fill:#000000;fill-opacity:1;stroke:none;stroke-width:3.23840117;stroke-linecap:butt;stroke-miterlimit:4;stroke-dasharray:none;stroke-opacity:1" />
      <path
         style="fill:#feb02f;stroke-width:0.34731057"
         d="m -325.15434,191.53271 c -5.57935,-1.53329 -8.91072,-3.31712 -12.54648,-6.71821 -5.63178,-5.26825 -8.81312,-12.56919 -8.81312,-20.22545 0,-5.1752 1.83702,-11.24131 4.68039,-15.45531 0.79144,-1.17296 0.825,-1.49575 0.95683,-9.20374 l 0.13662,-7.98814 1.11262,-2.81401 c 1.411,-3.56871 2.82307,-5.71413 5.36223,-8.14707 2.47468,-2.37116 4.96119,-3.90698 8.30007,-5.12662 2.27439,-0.83079 3.03126,-0.93052 7.06243,-0.93052 4.03117,0 4.78803,0.0997 7.06242,0.93052 3.33888,1.21964 5.8254,2.75546 8.30008,5.12662 2.53915,2.43294 3.95123,4.57836 5.36223,8.14707 l 1.11261,2.81401 0.13662,7.98814 c 0.13183,7.70799 0.16539,8.03078 0.95683,9.20374 2.84337,4.214 4.6804,10.28011 4.6804,15.45531 0,11.98778 -7.67281,22.51383 -19.17843,26.31023 -2.79063,0.92079 -3.82892,1.07946 -7.73814,1.18252 -3.64991,0.0962 -4.98088,-0.009 -6.94621,-0.54909 z m 8.18851,-13.89279 1.01522,-1.01522 v -4.9338 -4.9338 l 1.19596,-1.32378 c 2.18762,-2.42143 1.9957,-5.49324 -0.48313,-7.73271 -2.46527,-2.22722 -5.51863,-2.05247 -7.77493,0.44499 -2.10224,2.32693 -2.05776,5.4029 0.10813,7.47796 l 1.04969,1.00566 v 4.99774 4.99774 l 1.01521,1.01522 c 0.61202,0.61202 1.38128,1.01521 1.93693,1.01521 0.55565,0 1.3249,-0.40319 1.93692,-1.01521 z m -9.99871,-33.84193 c 2.46312,-1.07137 2.59732,-1.0895 8.06179,-1.0895 5.46446,0 5.59866,0.0181 8.06179,1.0895 1.37765,0.59923 3.31097,1.68128 4.29629,2.40457 l 1.79147,1.31506 -0.16631,-6.9196 c -0.18107,-7.53409 -0.40069,-8.60383 -2.34709,-11.43283 -1.65592,-2.4068 -3.07775,-3.60686 -5.90553,-4.98444 -2.40879,-1.17346 -2.84007,-1.26896 -5.73062,-1.26896 -2.89056,0 -3.32183,0.0955 -5.73063,1.26896 -2.82778,1.37758 -4.2496,2.57764 -5.90552,4.98444 -1.94641,2.829 -2.16602,3.89874 -2.34709,11.43283 l -0.16631,6.9196 1.79147,-1.31506 c 0.98531,-0.72329 2.91864,-1.80534 4.29629,-2.40457 z"
         id="path85"
         inkscape:connector-curvature="0" />
    </g>
  </g>
</svg>
